<svg xmlns="http://www.w3.org/2000/svg" viewBox="0 0 650 540" role="img" aria-labelledby="title desc">
  <title id="title">Red Donkey Technology Corp donkey mark</title>
  <desc id="desc">A simple, original black silhouette of a donkey.</desc>
  <g fill="#111">
    <!-- ears -->
    <path d="M155 54c24 9 48 75 38 125-4 18-13 29-24 30-13 1-25-10-32-29-17-46-6-116 18-126Z"/>
    <path d="M287 55c24 11 34 83 18 128-7 20-20 31-33 28-12-3-20-17-21-36-3-51 15-112 36-120Z"/>

    <!-- head and neck -->
    <path d="M127 177c-23 18-36 51-37 92-1 47 15 84 45 101 28 16 70 14 96-6 18-14 27-36 24-63-4-36-22-74-48-98-27-25-58-35-80-26Z"/>
    <path d="M219 190c31-9 69 12 86 48 18 38 17 89-2 123-17 30-53 40-82 24-29-16-43-52-34-95 7-33 8-82 32-100Z"/>

    <!-- little forelock -->
    <path d="M220 154c19 14 15 40-8 62-9-20-7-46 8-62Z"/>

    <!-- jagged mane -->
    <path d="M275 202l55 13-10 28 35 8-20 25 31 13-28 20 25 17c-29 16-68 20-103 8-6-49 0-93 15-132Z"/>

    <!-- body -->
    <path transform="translate(38 0)" d="M292 283c42 13 92-2 135 0 50 3 82 31 91 78 2 10 9 18 18 24 24 18 34 48 29 86-3 19-11 31-23 35-16 5-31-8-35-31-5-25-1-53 8-75-11-20-23-34-37-42-3 50-9 96-4 137 2 17-4 28-19 31-16 3-43 2-57-2-10-3-15-11-15-24 1-38 6-83-13-116-45 11-88 12-130 1-2 43-5 78-2 109 2 18-5 29-22 32-17 3-51 3-67-1-12-3-17-11-15-25 9-59 11-113 6-160 34-3 62-22 78-50 24 0 48 2 74-3Z"/>

    <!-- legs / chest mass -->
    <path d="M192 318c35 2 55 21 56 56 1 36-5 79-2 119 1 19-6 30-21 32-19 3-54 3-71-1-12-3-17-11-15-24 8-47 12-98 8-151 10-19 25-29 45-31Z"/>

    <!-- tail -->
    <path transform="translate(38 0)" d="M501 360c28 13 42 43 39 88l-18 1c4-32-6-54-29-66l8-23Z"/>
    <path transform="translate(38 0)" d="M527 435c26 4 43 23 47 57-31 1-55-15-64-44 4-8 9-12 17-13Z"/>
  </g>
</svg>
