<?xml version="1.0" encoding="UTF-8" standalone="no"?>
<!-- Created with Inkscape (http://www.inkscape.org/) -->

<svg
   xmlns:dc="http://purl.org/dc/elements/1.1/"
   xmlns:cc="http://creativecommons.org/ns#"
   xmlns:rdf="http://www.w3.org/1999/02/22-rdf-syntax-ns#"
   xmlns:svg="http://www.w3.org/2000/svg"
   xmlns="http://www.w3.org/2000/svg"
   xmlns:sodipodi="http://sodipodi.sourceforge.net/DTD/sodipodi-0.dtd"
   xmlns:inkscape="http://www.inkscape.org/namespaces/inkscape"
   width="52.270363mm"
   height="51.138435mm"
   viewBox="0 0 185.20995 181.19918"
   id="svg6492"
   version="1.1"
   inkscape:version="0.91 r13725"
   sodipodi:docname="donkey01.svg">
  <title
     id="title6515">Donkey</title>
  <defs
     id="defs6494" />
  <sodipodi:namedview
     id="base"
     pagecolor="#ffffff"
     bordercolor="#666666"
     borderopacity="1.0"
     inkscape:pageopacity="0.0"
     inkscape:pageshadow="2"
     inkscape:zoom="2.8"
     inkscape:cx="116.17641"
     inkscape:cy="82.637312"
     inkscape:document-units="px"
     inkscape:current-layer="layer1"
     showgrid="false"
     inkscape:window-width="1280"
     inkscape:window-height="753"
     inkscape:window-x="-4"
     inkscape:window-y="-4"
     inkscape:window-maximized="1"
     fit-margin-top="0"
     fit-margin-left="0"
     fit-margin-right="0"
     fit-margin-bottom="0" />
  <metadata
     id="metadata6497">
    <rdf:RDF>
      <cc:Work
         rdf:about="">
        <dc:format>image/svg+xml</dc:format>
        <dc:type
           rdf:resource="http://purl.org/dc/dcmitype/StillImage" />
        <dc:title>Donkey</dc:title>
        <cc:license
           rdf:resource="http://creativecommons.org/publicdomain/zero/1.0/" />
        <dc:date>2015-03-08</dc:date>
        <dc:creator>
          <cc:Agent>
            <dc:title>mazeo</dc:title>
          </cc:Agent>
        </dc:creator>
        <dc:publisher>
          <cc:Agent>
            <dc:title>openclipart.org</dc:title>
          </cc:Agent>
        </dc:publisher>
        <dc:source>http://www.blendswap.com/blends/view/24715</dc:source>
        <dc:language>en</dc:language>
        <dc:subject>
          <rdf:Bag>
            <rdf:li>donkey</rdf:li>
            <rdf:li>mule</rdf:li>
            <rdf:li>hinny</rdf:li>
            <rdf:li>ass</rdf:li>
            <rdf:li>jackass</rdf:li>
            <rdf:li>jenny</rdf:li>
            <rdf:li>burro</rdf:li>
            <rdf:li>animal</rdf:li>
            <rdf:li>animals</rdf:li>
            <rdf:li>mammal</rdf:li>
            <rdf:li>mammals</rdf:li>
            <rdf:li>silhouette</rdf:li>
          </rdf:Bag>
        </dc:subject>
        <dc:description>A donkey silhouette</dc:description>
        <dc:contributor>
          <cc:Agent>
            <dc:title>mazeo, Jeff2207</dc:title>
          </cc:Agent>
        </dc:contributor>
      </cc:Work>
      <cc:License
         rdf:about="http://creativecommons.org/publicdomain/zero/1.0/">
        <cc:permits
           rdf:resource="http://creativecommons.org/ns#Reproduction" />
        <cc:permits
           rdf:resource="http://creativecommons.org/ns#Distribution" />
        <cc:permits
           rdf:resource="http://creativecommons.org/ns#DerivativeWorks" />
      </cc:License>
    </rdf:RDF>
  </metadata>
  <g
     inkscape:label="Layer 1"
     inkscape:groupmode="layer"
     id="layer1"
     transform="translate(-258.82359,-344.61976)">
    <path
       style="fill:#000000;fill-opacity:1;stroke:none;stroke-width:0;stroke-linejoin:round;stroke-opacity:1"
       d="m 410.14071,344.61976 c -1.7323,1.55871 -5.00065,0.94614 -5.32204,3.9384 c -2.70922,5.37484 -6.56353,10.29972 -7.91406,16.23894 c -1.55538,2.17815 0.28676,5.06394 -0.98915,7.34711 c -3.47939,2.43429 -6.80476,4.63587 -8.93206,8.42025 c -2.65085,3.94927 -6.37145,7.48074 -8.42747,11.61966 c -1.69313,4.34558 -4.04838,8.29206 -5.26411,12.82996 c -1.44168,4.02086 -2.77022,8.1143 -6.34772,10.76514 c -4.11934,4.48843 -9.79248,7.01934 -15.64304,8.40098 c -7.54155,0.41091 -15.28954,0.18352 -22.81257,-0.43095 c -6.63994,-2.58164 -13.37755,-5.00927 -20.07868,-7.22164 c -3.8017,-0.60746 -8.55279,0.4923 -11.89736,0.91596 c -4.11616,1.17815 -8.48909,1.56987 -11.67419,4.58271 c -5.26085,2.77276 -8.03481,8.18077 -12.04352,12.59 c -1.45192,3.03106 -2.2924,7.95149 -3.55218,11.71158 c -0.27857,3.38101 -2.39919,5.63457 -4.95805,7.6199 c -2.78405,1.69565 -3.59591,4.35298 -4.57171,7.22122 c -0.24052,5.3285 -1.38964,11.11537 -0.63718,16.30385 c 0.8805,3.2418 1.20064,7.17673 3.31845,9.70232 c 2.01612,0.4828 2.90503,-2.68229 4.684,-3.30928 c 4.06468,-3.93157 6.8092,-9.39812 8.94741,-14.50475 c 1.0817,-3.47978 2.20898,-7.41917 1.89982,-10.73502 c -1.29023,-3.7247 -4.75242,-7.21738 -2.77118,-11.29155 c 1.13016,-3.74315 1.17271,-8.04447 2.96131,-11.4501 c 3.27904,-3.3451 6.89193,-8.26657 10.78448,-9.77607 c -1.70159,2.86437 -4.0263,6.36415 -5.39462,8.73447 c 1.94454,3.12161 -0.84125,7.26872 1.15042,10.06561 c 3.26497,6.38046 4.82684,13.07235 7.50166,19.65885 c 0.14408,4.38868 1.1196,8.64618 1.60212,12.89567 c -0.39901,2.39191 -2.02035,5.59818 -1.95156,7.54602 c 1.87437,4.50667 2.8502,9.1997 2.65221,14.08008 c -0.14431,6.74951 1.20705,13.52656 2.27402,20.022 c 4.04612,-0.10847 0.75111,7.58354 5.20197,6.62518 c 6.13319,0 12.26637,0 18.39956,0 c 1.60748,-1.63133 -2.32893,-4.10829 -2.80581,-6.14784 c -1.22291,-3.15592 -5.19508,-4.52083 -6.60896,-7.41083 c 0.51585,-3.04024 -2.43339,-5.7006 -3.45044,-8.46466 c -1.98404,-2.5257 -3.62468,-5.16409 -3.10394,-8.51176 c -1.13209,-4.90682 3.40881,-8.99955 1.85892,-13.70199 c -1.52177,-3.69798 3.06889,-4.7026 5.11729,-6.82743 c 1.87041,-1.13068 3.99586,-3.3931 5.38969,-5.08518 c 1.91587,-1.77021 2.59286,-8.23977 5.66202,-5.63524 c 2.9712,1.84314 5.26963,3.50902 8.07049,5.43424 c -4.06346,-2.99911 -3.66535,-2.2953 -0.5996,0.35156 c 5.44818,1.23014 11.57197,3.26548 17.19704,3.44773 c 6.44543,-0.12866 12.73437,-1.19403 18.98874,-2.71542 c 1.4669,2.59328 4.94492,5.31458 3.13069,8.75219 c -0.18944,3.28222 -2.58032,6.506 -0.69031,9.36369 c 2.86278,6.28615 1.80593,13.67595 1.48361,20.11879 c 0.98841,3.84721 1.84438,8.25724 2.78523,11.93193 c 2.80652,-1.00012 2.09676,2.46947 2.43735,3.96682 c 1.84822,2.02585 5.50596,0.40344 8.10281,0.91992 c 3.49504,0 6.99007,0 10.4851,0 c 2.16191,-1.4088 -1.06443,-4.3084 -1.0793,-6.41078 c -0.20012,-2.57544 -3.77337,-2.83692 -5.49745,-4.62333 c -0.80012,-1.39483 0.1971,-3.65488 -1.3224,-5.43179 c -0.57392,-3.05729 -2.07009,-5.02122 -4.34616,-7.06272 c -1.95813,-2.28556 -1.04682,-6.04333 -1.19505,-8.90872 c 1.00777,-3.67736 2.94536,-6.78207 1.96164,-10.58923 c -0.1049,-3.31161 -1.01648,-6.80489 1.3993,-9.54882 c 1.6166,-3.84596 4.83881,-6.76955 4.58433,-10.99507 c 0.52416,-3.16112 0.21617,-6.72205 2.46771,-9.11108 c 1.22944,-3.20531 4.29427,-5.63037 3.53157,-9.00025 c -0.6897,-9.34396 2.11094,-18.45214 3.42664,-27.50851 c -0.80426,-3.4964 2.02968,-2.4741 4.25853,-2.41578 c 4.5619,0.26111 8.91936,-2.05985 13.54395,-0.74028 c 5.22714,0.48338 10.17785,3.63193 14.47532,5.36518 c 4.36168,-0.24888 8.70633,-0.7724 12.72468,-1.68374 c 0.43395,-3.33424 -3.30615,-2.84702 -5.15908,-4.82974 c -1.9475,-1.60899 -4.62511,-2.7527 -6.2222,-4.36157 c 3.71795,1.32923 7.34136,4.05165 10.43154,5.85927 c 3.9564,-0.28361 1.51841,-3.77272 1.55088,-6.38472 c -0.43328,-3.29143 -0.87489,-7.22862 -1.64835,-10.13852 c -2.61165,-2.12203 -3.78455,-5.62884 -7.19571,-6.16239 c -4.54637,-3.0019 -10.32314,0.4217 -14.98104,-2.78702 c -2.11335,-2.222 -1.48229,-5.50408 -4.42573,-7.20881 c -2.94815,-2.75404 -5.07486,-6.40171 -9.14318,-7.40056 c 2.45866,-3.52906 3.46064,-7.97616 5.07218,-11.75021 c 0.72205,-4.69531 1.14601,-9.69207 1.72581,-14.23634 c 0.37572,-1.69085 -1.746,-2.02567 -2.58333,-2.83749 z m 7.66601,41.00976 c 0.31569,0.81136 0.0345,0.36205 0,0 z M 297.53329,417.4596 c -2.13455,1.54472 -6.59866,4.50822 -1.812,1.24278 c 0.604,-0.41426 1.20801,-0.82851 1.812,-1.24278 z"
       id="path6182-2"
       inkscape:connector-curvature="0" />
  </g>
</svg>
