<svg xmlns="http://www.w3.org/2000/svg" viewBox="0 0 84 84" role="img" aria-labelledby="title desc">
  <title id="title">Red Donkey Technology Corp donkey mark</title>
  <desc id="desc">A simple black silhouette of a donkey in profile.</desc>
  <path fill="#111" fill-rule="evenodd" d="M18 59L17 59L17 63L16 63L16 66L17 66L17 70L18 70L18 72L19 72L19 73L20 73L20 77L18 77L18 78L15 78L15 77L13 77L13 76L12 76L12 74L11 74L11 71L10 71L10 67L9 67L9 62L8 62L8 55L7 55L7 47L8 47L8 41L9 41L9 38L10 38L10 36L11 36L11 35L12 35L12 34L13 34L13 33L14 33L14 32L16 32L16 31L19 31L19 30L45 30L45 29L47 29L47 28L48 28L48 27L50 27L50 26L51 26L51 25L52 25L52 24L53 24L53 23L55 23L55 22L56 22L56 21L57 21L57 20L58 20L58 19L60 19L60 18L61 18L61 17L62 17L62 16L64 16L64 15L65 15L65 13L64 13L64 9L65 9L65 6L66 6L66 5L70 5L70 14L71 14L71 11L72 11L72 9L73 9L73 7L74 7L74 6L78 6L78 7L79 7L79 8L78 8L78 11L77 11L77 13L76 13L76 15L75 15L75 16L74 16L74 18L75 18L75 20L76 20L76 21L77 21L77 22L78 22L78 25L79 25L79 30L80 30L80 33L81 33L81 34L82 34L82 39L81 39L81 40L80 40L80 41L76 41L76 40L74 40L74 39L72 39L72 38L71 38L71 37L70 37L70 36L69 36L69 35L68 35L68 36L67 36L67 38L66 38L66 39L65 39L65 41L64 41L64 42L63 42L63 44L62 44L62 45L61 45L61 47L60 47L60 48L59 48L59 50L58 50L58 51L57 51L57 53L56 53L56 55L55 55L55 59L54 59L54 68L55 68L55 73L56 73L56 75L57 75L57 77L56 77L56 78L52 78L52 77L51 77L51 76L50 76L50 75L49 75L49 72L48 72L48 69L47 69L47 62L46 62L46 57L43 57L43 56L37 56L37 55L34 55L34 54L31 54L31 53L29 53L29 52L28 52L28 51L27 51L27 50L24 50L24 51L23 51L23 52L22 52L22 53L21 53L21 54L20 54L20 55L19 55L19 57L18 57Z"/>
</svg>
