<svg xmlns="http://www.w3.org/2000/svg" viewBox="0 0 640 420" role="img" aria-labelledby="title desc">
  <title id="title">Red Donkey Technology Corp donkey mark</title>
  <desc id="desc">A simple original black silhouette of a donkey in profile.</desc>
  <path fill="#111" d="
    M122 82
    c16 7 34 43 42 82
    c22-34 48-61 68-62
    c15 13 12 61-5 96
    c15 13 25 31 29 55
    c32 10 72 14 115 9
    c82-9 139 25 155 95
    c17 7 32 25 39 51
    c-24 0-47-10-58-28
    c-2-4-4-8-6-12
    c-11 2-21 2-31-1
    c2 38 3 76 8 113
    c2 17-5 25-22 26
    l-42 1
    c-15 0-22-8-21-23
    c3-45-4-83-22-114
    c-52 12-105 9-156-7
    c-4 38-6 77-3 117
    c1 17-6 25-23 26
    l-47 1
    c-16 0-23-8-21-24
    c6-55 7-104 4-147
    c-23-5-43-21-56-45
    c-22-43-16-105 15-138
    c-20-36-18-83 18-72
    Z

    M512 344
    c22 1 39 16 46 42
    c5-38-5-67-30-87
    c-7-6-5-17 4-19
    c30 25 44 61 39 109
    c0 10-6 16-15 17
    c-24 2-45-8-56-28
    c-10-18-4-33 12-34
    Z
  "/>
</svg>
